<?xml version="1.0" encoding="UTF-8"?>
<svg width="41px" height="42px" viewBox="0 0 41 42" version="1.1" xmlns="http://www.w3.org/2000/svg" xmlns:xlink="http://www.w3.org/1999/xlink">
    <!-- Generator: Sketch 55.2 (78181) - https://sketchapp.com -->
    <title>pencil</title>
    <desc>Created with Sketch.</desc>
    <g id="Page-1" stroke="none" stroke-width="1" fill="none" fill-rule="evenodd">
        <g id="Add-Collections-Copy" transform="translate(-484.000000, -596.000000)">
            <g id="Group-8" transform="translate(188.000000, 528.000000)">
                <g id="hover" transform="translate(277.000000, -6.000000)">
                    <g id="pencil" transform="translate(19.000000, 74.000000)">
                        <ellipse id="Oval" fill="#AB0033" cx="20.5" cy="21" rx="20.5" ry="21"></ellipse>
                        <path d="M31,11.8733093 C30.999115,10.8889665 30.6234865,9.96412294 29.9421875,9.26900732 C28.5370523,7.83527511 26.2526967,7.83725239 24.8491434,9.27439997 L10.3504465,24.1612355 C9.8788455,24.6431608 9.51886088,25.2397703 9.30933858,25.8867114 L9.29580401,25.9287743 L8,31.7560976 L13.7140527,30.4478349 L13.75659,30.4334544 C14.3893755,30.2191855 14.97312,29.8514052 15.4459514,29.3680419 L29.9465818,14.4794087 C30.6266505,13.7830348 31.0008728,12.8574722 31,11.8733093 Z M11.1686732,29.1456839 L10.5627811,28.5257062 L11.000282,26.5577398 L13.09779,28.7040239 L11.1686732,29.1456839 Z M28.6731011,13.1804934 L14.5955581,27.6348365 L12.0463115,25.0262204 L21.6894346,15.1250915 L23.1578485,16.6267714 L24.4295715,15.3262383 L22.958521,13.8218621 L24.3265681,12.41743 L25.8002551,13.9245026 L27.0719781,12.6239695 L25.5956545,11.1142005 L26.1224484,10.5733154 C26.8246645,9.85429218 27.9684242,9.85321363 28.6718707,10.5709785 C29.0128717,10.9189857 29.2009497,11.3820366 29.2014774,11.8747473 C29.2018285,12.3676377 29.0146295,12.8308683 28.6731011,13.1804934 Z M17.4611973,29.8968834 L30.9999939,29.8968834 L30.9999939,31.7361447 L15.6688325,31.7361447 L17.4611973,29.8968834 Z" id="Shape" fill="#FFFFFF" fill-rule="nonzero"></path>
                    </g>
                </g>
            </g>
        </g>
    </g>
</svg>