<?xml version="1.0" encoding="UTF-8"?>
<svg width="41px" height="42px" viewBox="0 0 41 42" version="1.1" xmlns="http://www.w3.org/2000/svg" xmlns:xlink="http://www.w3.org/1999/xlink">
    <!-- Generator: Sketch 55.2 (78181) - https://sketchapp.com -->
    <title>MAG</title>
    <desc>Created with Sketch.</desc>
    <g id="Page-1" stroke="none" stroke-width="1" fill="none" fill-rule="evenodd">
        <g id="Add-Collections-Copy" transform="translate(-484.000000, -547.000000)">
            <g id="Group-8" transform="translate(188.000000, 528.000000)">
                <g id="hover" transform="translate(277.000000, -6.000000)">
                    <g id="MAG" transform="translate(19.000000, 25.000000)">
                        <ellipse id="Oval" fill="#AB0033" cx="20.5" cy="21" rx="20.5" ry="21"></ellipse>
                        <g id="magnifier" transform="translate(8.000000, 7.170732)" fill="#FFFFFF" fill-rule="nonzero">
                            <path d="M23.3028148,20.6176621 L17.8057778,14.9860958 C16.986716,16.2909919 15.9027654,17.4008238 14.6289383,18.2399133 L20.1264198,23.8714797 C21.0040494,24.7703126 22.4270123,24.7703126 23.3027654,23.8714797 C24.1804444,22.9741138 24.1804444,21.5164444 23.3028148,20.6176621 Z" id="Path"></path>
                            <path d="M17.9708148,9.20458898 C17.9708148,4.12148871 13.9476543,0 8.98548148,0 C4.02340741,0 4.93827156e-05,4.12148871 4.93827156e-05,9.20458898 C4.93827156e-05,14.2876893 4.02340741,18.4089756 8.98548148,18.4089756 C13.9476543,18.4089756 17.9708148,14.2876893 17.9708148,9.20458898 Z M8.98548148,16.1077651 C5.26933333,16.1077651 2.24646914,13.0114255 2.24646914,9.20463957 C2.24646914,5.39785366 5.26933333,2.30126107 8.98548148,2.30126107 C12.7015309,2.30126107 15.724642,5.39785366 15.724642,9.20463957 C15.724642,13.0114255 12.7015309,16.1077651 8.98548148,16.1077651 Z" id="Shape"></path>
                            <path d="M3.74404938,9.20458898 L5.2414321,9.20458898 C5.2414321,7.08989341 6.9211358,5.36937308 8.9854321,5.36937308 L8.9854321,3.83531707 C6.0957037,3.83531707 3.74404938,6.24432882 3.74404938,9.20458898 Z" id="Path"></path>
                        </g>
                    </g>
                </g>
            </g>
        </g>
    </g>
</svg>