<?xml version="1.0" encoding="UTF-8"?>
<svg width="606px" height="394px" viewBox="0 0 606 394" version="1.1" xmlns="http://www.w3.org/2000/svg" xmlns:xlink="http://www.w3.org/1999/xlink">
    <!-- Generator: Sketch 55.2 (78181) - https://sketchapp.com -->
    <title>Group 5</title>
    <desc>Created with Sketch.</desc>
    <defs>
        <linearGradient x1="50.0019333%" y1="100%" x2="50.0019333%" y2="-0.00248366987%" id="linearGradient-1">
            <stop stop-color="#808080" stop-opacity="0.25" offset="0%"></stop>
            <stop stop-color="#808080" stop-opacity="0.12" offset="54%"></stop>
            <stop stop-color="#808080" stop-opacity="0.1" offset="100%"></stop>
        </linearGradient>
        <linearGradient x1="50.0197803%" y1="99.9899581%" x2="50.0197803%" y2="0.00209562802%" id="linearGradient-2">
            <stop stop-color="#808080" stop-opacity="0.25" offset="0%"></stop>
            <stop stop-color="#808080" stop-opacity="0.12" offset="54%"></stop>
            <stop stop-color="#808080" stop-opacity="0.1" offset="100%"></stop>
        </linearGradient>
        <linearGradient x1="50%" y1="0%" x2="50%" y2="100%" id="linearGradient-3">
            <stop stop-color="#B6C6F7" offset="0%"></stop>
            <stop stop-color="#727CA3" offset="100%"></stop>
        </linearGradient>
        <linearGradient x1="72.0727891%" y1="17.5261431%" x2="38.6188724%" y2="100%" id="linearGradient-4">
            <stop stop-color="#FFE2E2" offset="0%"></stop>
            <stop stop-color="#CE9D9D" offset="100%"></stop>
        </linearGradient>
        <linearGradient x1="50%" y1="23.3276509%" x2="50%" y2="124.147843%" id="linearGradient-5">
            <stop stop-color="#F9CA33" offset="0%"></stop>
            <stop stop-color="#F6671B" offset="100%"></stop>
        </linearGradient>
    </defs>
    <g id="Page-1" stroke="none" stroke-width="1" fill="none" fill-rule="evenodd">
        <g id="Upload-Copy" transform="translate(-785.000000, -335.000000)" fill-rule="nonzero">
            <g id="Group-5" transform="translate(785.000000, 335.000000)">
                <g id="undraw_filing_system_b5d2">
                    <path d="M59.0769146,314.597025 C56.4902158,320.145258 60.1923908,326.133253 58.9080858,331.86221 C57.2861231,339.091179 47.9884783,344.717725 37.9733109,348.308113 C27.9581435,351.898501 16.7732336,354.079239 7.01130945,357.946737 C2.7905887,359.615424 -1.61102008,362.69376 0.583754712,365.525106 C1.34348445,366.50704 2.7664703,367.193792 4.15930814,367.838375 C32.5949068,380.946904 67.7414514,388.067438 102.857848,387.838521 C140.000191,387.591531 176.370744,379.404725 213.482939,380.34449 C261.345912,381.549318 307.641189,397.850642 354.973557,393.151812 C375.064188,391.145774 393.719774,385.458985 413.285829,381.904743 C442.059085,376.681813 472.321653,376.157713 502.119942,374.440833 C524.495791,373.151667 550.067329,369.808269 560.757812,357.241913 C568.487761,348.157509 565.243835,336.157422 554.354376,328.464595 C543.464916,320.771768 526.069517,317.482588 510.00063,318.976575 C501.360212,319.777785 492.77406,321.856114 484.133642,321.030806 C479.117014,320.548875 474.48628,319.11513 469.909813,317.705481 C434.510025,306.741546 397.837991,295.801707 358.543081,294.211334 C294.62931,291.602882 235.388479,313.819911 173.120789,323.428414 C163.425191,324.922401 152.897507,326.073012 143.738543,323.566969 C134.091181,320.922372 127.7601,314.675338 118.09465,312.042789 C113.506123,310.789768 108.393022,310.42832 103.88288,309.066864 C91.4860204,305.319849 97.250319,300.169209 80.0418375,303.645138 C71.0517024,305.476476 61.9711232,308.410233 59.0769146,314.597025 Z" id="Path" fill="#FFC107" opacity="0.1"></path>
                    <polygon id="Path" fill="#FFC107" points="408 340 92 340 92 143 132.412357 143 149.038534 163.49711 408 163.49711"></polygon>
                    <polygon id="Path" fill="#000000" opacity="0.1" points="408 340 92 340 92 143 132.412357 143 149.038534 163.49711 408 163.49711"></polygon>
                    <polygon id="Rectangle" fill="#AF0E3E" transform="translate(262.063106, 197.575224) rotate(-19.885165) translate(-262.063106, -197.575224) " points="186.6137 79.9479745 337.615315 79.8819386 337.512513 315.202474 186.510898 315.26851"></polygon>
                    <polygon id="Rectangle" fill="#FFFFFF" transform="translate(199.682256, 124.992134) rotate(-19.885165) translate(-199.682256, -124.992134) " points="178.351654 119.977062 221.017248 119.958403 221.012858 130.007206 178.347264 130.025865"></polygon>
                    <polygon id="Rectangle" fill="#FFFFFF" transform="translate(240.197142, 139.734577) rotate(-19.650000) translate(-240.197142, -139.734577) " points="193.333357 135.147811 287.064913 135.107226 287.060927 144.321343 193.329371 144.361928"></polygon>
                    <polygon id="Rectangle" fill="#FFFFFF" transform="translate(246.811482, 158.281227) rotate(-19.650000) translate(-246.811482, -158.281227) " points="199.947697 153.694461 293.679253 153.653876 293.675267 162.867993 199.943711 162.908578"></polygon>
                    <polygon id="Rectangle" fill="#FFFFFF" transform="translate(253.419795, 176.827878) rotate(-19.650000) translate(-253.419795, -176.827878) " points="206.55601 172.241112 300.287566 172.200527 300.283581 181.414644 206.552025 181.455229"></polygon>
                    <polygon id="Rectangle" fill="#FFFFFF" transform="translate(260.034135, 195.368493) rotate(-19.650000) translate(-260.034135, -195.368493) " points="213.17035 190.781727 306.901906 190.741142 306.897921 199.955259 213.166365 199.995844"></polygon>
                    <polygon id="Rectangle" fill="#FFFFFF" transform="translate(266.646449, 213.909460) rotate(-19.650000) translate(-266.646449, -213.909460) " points="219.782663 209.322694 313.514219 209.282109 313.510234 218.496226 219.778678 218.536811"></polygon>
                    <polygon id="Rectangle" fill="#FFFFFF" transform="translate(273.260789, 232.456110) rotate(-19.650000) translate(-273.260789, -232.456110) " points="226.397003 227.869344 320.128559 227.828759 320.124574 237.042876 226.393018 237.083461"></polygon>
                    <polygon id="Rectangle" fill="#FFFFFF" transform="translate(325.686098, 258.639486) rotate(-19.650000) translate(-325.686098, -258.639486) " points="313.557485 246.498036 337.825218 246.487528 337.81471 270.780937 313.546977 270.791445"></polygon>
                    <polygon id="Rectangle" fill="url(#linearGradient-1)" transform="translate(186.745298, 202.615927) rotate(-59.280000) translate(-186.745298, -202.615927) " points="108.803563 81.290489 264.832755 81.1968836 264.687032 323.941365 108.65784 324.03497"></polygon>
                    <polygon id="Rectangle" fill="#F9894D" transform="translate(186.747888, 202.617468) rotate(-59.280000) translate(-186.747888, -202.617468) " points="111.223091 85.0556719 262.413888 84.9649691 262.272686 320.179265 111.081889 320.269968"></polygon>
                    <polygon id="Rectangle" fill="#FFFFFF" transform="translate(92.356276, 186.173779) rotate(-59.280000) translate(-92.356276, -186.173779) " points="70.9997673 181.164459 113.718814 181.138831 113.712784 191.183098 70.9937376 191.208726"></polygon>
                    <polygon id="Rectangle" fill="#FFFFFF" transform="translate(132.326594, 170.480351) rotate(-59.280000) translate(-132.326594, -170.480351) " points="85.4234695 165.905371 179.235244 165.849091 179.229718 175.055331 85.4179428 175.11161"></polygon>
                    <polygon id="Rectangle" fill="#FFFFFF" transform="translate(149.231774, 180.541945) rotate(-59.280000) translate(-149.231774, -180.541945) " points="102.328649 175.966965 196.140424 175.910685 196.134898 185.116924 102.323123 185.173204"></polygon>
                    <polygon id="Rectangle" fill="#FFFFFF" transform="translate(166.030658, 190.313626) rotate(-59.331073) translate(-166.030658, -190.313626) " points="119.134517 185.73931 212.932319 185.683094 212.926799 194.887942 119.128997 194.944159"></polygon>
                    <polygon id="Rectangle" fill="#FFFFFF" transform="translate(183.036952, 200.656014) rotate(-59.280000) translate(-183.036952, -200.656014) " points="136.133828 196.081034 229.945603 196.024755 229.940076 205.230994 136.128301 205.287274"></polygon>
                    <polygon id="Rectangle" fill="#FFFFFF" transform="translate(199.942132, 210.717608) rotate(-59.280000) translate(-199.942132, -210.717608) " points="153.039008 206.142628 246.850783 206.086349 246.845256 215.292588 153.033481 215.348868"></polygon>
                    <polygon id="Rectangle" fill="#FFFFFF" transform="translate(216.853339, 220.779202) rotate(-59.280000) translate(-216.853339, -220.779202) " points="169.950215 216.204222 263.76199 216.147943 263.756463 225.354182 169.944688 225.410462"></polygon>
                    <polygon id="Rectangle" fill="#FFFFFF" transform="translate(273.714096, 207.119192) rotate(-59.331073) translate(-273.714096, -207.119192) " points="261.578931 194.991984 285.863816 194.977429 285.849261 219.246401 261.564377 219.260956"></polygon>
                    <path d="M577.985235,76.7821226 C577.985235,76.4841032 577.955112,76.2001793 577.894865,75.930351 C577.834619,75.6605226 577.782405,75.3484077 577.738224,74.9940063 C577.625764,74.3818584 577.497238,73.7898469 577.352646,73.2179719 C577.28035,72.9320344 577.206046,72.6521378 577.129733,72.3782822 C576.265729,69.2050469 574.721649,66.2590403 572.605214,63.7457884 L572.243735,63.3350049 C572.002748,63.0692039 571.76377,62.8174983 571.5268,62.5798882 C571.28983,62.3422782 571.056877,62.122791 570.82794,61.9214265 C570.599003,61.7160348 570.37609,61.5287658 570.159203,61.3475378 C569.731452,60.9971637 569.3278,60.701158 568.954271,60.4595206 C568.580742,60.2178833 568.448199,60.1272693 568.237336,60.0004097 C567.72239,59.6945755 567.146305,59.5068422 566.550432,59.4506848 L562.833217,59.0882288 L562.833217,59.0882288 L557.808651,58.5928722 L539.668402,51.5672667 L538.951467,51.8209859 C538.421265,50.3631855 537.972732,48.8768117 537.607968,47.3688181 C538.157149,47.1311166 538.646877,46.7741757 539.041837,46.3237366 C539.470542,45.9915883 539.810089,45.5577034 540.029881,45.0611815 C540.487756,44.0100591 539.61418,41.7628319 539.788895,40.482154 C540.078079,38.4221957 541.150468,36.4286877 542.024044,34.5620393 C543.891688,30.5508596 545.253261,26.2074285 545.036373,21.8035881 C544.819486,17.3997477 542.801225,12.9354979 539.071961,10.4707971 C537.14407,9.19616016 534.854699,8.51353469 532.872586,7.35367548 C531.312199,6.44753548 529.938577,5.26955347 528.450486,4.24863574 C520.996231,-0.69536009 511.50645,-1.37126842 503.430076,2.46656039 C499.65864,4.32112694 496.441471,7.08787441 492.880898,9.30489696 C489.320324,11.5219195 485.127161,13.2375446 480.964122,12.5790828 C480.904951,12.7455759 480.862567,12.9175949 480.837604,13.0925622 L480.488174,13.0502756 C479.771239,15.0014971 481.53044,16.9225139 483.151073,18.2575602 C486.223649,20.7826703 489.711927,23.3077805 493.72435,23.3923535 C495.272688,23.4285992 496.911395,23.1023887 498.321165,23.7366868 C498.626952,23.878119 498.914268,24.0566549 499.176667,24.2682889 C497.356735,31.5382539 499.783849,39.2156549 505.448337,44.106714 L496.182411,40.7842007 C496.182411,40.7842007 495.796833,40.9835515 495.194367,41.3580894 L482.31967,32.8222505 C482.31967,32.8222505 456.516054,23.4527629 449.34671,37.9751667 C442.177365,52.4975705 480.409853,45.0007722 480.409853,45.0007722 L488.59134,49.4831447 C488.320327,51.1672297 488.63741,52.8934949 489.489015,54.3702598 L511.780254,68.1073423 C507.273809,69.490716 499.869503,71.7319023 498.526004,71.7319023 C496.616187,71.7319023 491.356659,73.6045916 488.012973,81.1013899 C484.669287,88.5981882 472.722388,125.145835 462.209357,131.241137 C451.696327,137.336439 423.97687,178.094616 423.97687,178.094616 L424.103387,178.414785 C423.609365,178.543659 423.125384,178.686627 422.651444,178.843692 C415.717062,181.090919 411.053975,185.833052 408.240459,189.669044 C407.2868,190.99617 407.109368,192.73183 407.774678,194.225355 C408.439989,195.71888 409.847545,196.744666 411.469677,196.918164 C422.410458,198.295497 428.38692,193.293604 431.260683,189.475734 C431.447447,189.228056 431.622162,188.986419 431.784828,188.750822 C432.640778,189.115098 433.598958,189.15799 434.483875,188.871641 L447.864644,178.094616 C447.864644,178.094616 437.393786,188.364203 443.532914,197.721608 L443.069015,198.367988 C432.717811,213.075236 425.114023,229.543784 420.627159,246.973338 C420.627159,246.973338 414.891683,251.201991 414.415735,268.056196 C413.939787,284.9104 408.204312,312.100641 408.204312,312.100641 C408.204312,312.100641 404.378653,344.431716 406.770443,354.272396 C406.770443,354.272396 407.047577,354.665057 407.553648,355.263109 C407.372909,355.474542 407.180119,355.704098 406.951182,355.939694 C404.86665,358.186921 401.101238,361.28592 396.709262,360.361657 C390.015865,358.95412 390.015865,370.66749 399.576999,371.609875 C405.734201,372.213968 417.825692,374.956552 425.663774,376.829242 C427.3919,377.271413 429.226528,376.843073 430.582101,375.680933 C431.937674,374.518793 432.644755,372.768114 432.477664,370.987659 C432.00774,366.78921 431.158263,361.708785 429.609926,358.090266 C429.513531,357.866752 429.417137,357.649278 429.314718,357.431805 C429.597877,357.172044 429.875011,356.900202 430.15817,356.610238 C430.15817,356.610238 430.15817,335.992532 433.501856,330.368423 C433.501856,330.368423 442.581017,287.731515 442.105069,276.95449 C441.73154,268.497184 465.655463,235.682834 476.072098,221.812851 L475.987753,221.287289 C478.650653,217.747303 480.337557,215.572566 480.337557,215.572566 L488.458798,266.642617 C488.458798,266.642617 492.356752,277.890835 497.134307,283.968014 C497.134307,283.968014 517.68442,322.859543 520.070185,335.038065 C521.877583,344.274652 525.612872,349.735655 527.299776,351.8379 C527.100963,352.037251 526.896124,352.236602 526.69731,352.441994 C524.522408,354.429461 521.311265,356.422969 517.660322,355.661811 C510.991024,354.248233 510.991024,365.961602 520.552158,366.897947 C526.70936,367.50204 538.800851,370.244624 546.638933,372.117314 C548.367058,372.559485 550.201686,372.131145 551.55726,370.969005 C552.912833,369.806865 553.619913,368.056186 553.452822,366.275731 C552.910603,361.400698 551.844238,355.335601 549.783805,351.777491 C549.611098,351.475444 549.430358,351.19152 549.241586,350.925719 C549.968887,350.634328 550.618603,350.177264 551.139353,349.590673 C551.139353,349.590673 538.704456,320.044468 538.704456,312.076477 C538.704456,312.076477 533.444929,281.618091 515.768578,270.394037 C515.768578,270.394037 517.443434,232.305952 522.474024,211.102276 C522.598534,210.578728 522.725052,210.065249 522.853578,209.561838 C527.378097,208.855049 532.029134,207.906622 536.794639,206.668231 L537.270587,192.610979 L539.680451,203.859197 L566.417889,187.445981 C566.417889,187.445981 566.182927,184.491964 565.731078,179.961264 C565.502141,177.695914 565.225007,175.037904 564.887626,172.156378 C564.622541,169.848742 564.315283,167.402164 563.983927,164.907258 C563.899582,164.283029 563.813228,163.654772 563.724866,163.022487 C563.375436,160.497377 562.989858,157.942062 562.574157,155.441116 C562.417515,154.502758 562.256858,153.574467 562.092184,152.656246 C561.875296,151.448059 561.646359,150.239872 561.411397,149.067931 C561.294921,148.483974 561.174427,147.908072 561.049918,147.340224 C560.925408,146.772376 560.800898,146.216611 560.676389,145.672927 C560.551879,145.129243 560.425361,144.595627 560.296835,144.072079 L560.104046,143.29884 C559.971504,142.791401 559.838961,142.296045 559.706419,141.81277 C559.145336,139.809813 558.819801,137.747931 558.736449,135.669141 C558.704317,134.863683 558.704317,134.038089 558.736449,133.192358 C558.76858,132.346628 558.848909,131.525061 558.977435,130.727657 C559.033665,130.324929 559.101945,129.9222 559.182273,129.519471 C559.490335,127.887182 559.944008,126.285941 560.537822,124.735052 C560.835038,123.957785 561.168403,123.190586 561.537915,122.433456 C562.405466,120.663462 563.345313,118.742446 564.28516,116.718733 C564.763116,115.707883 565.245089,114.674884 565.731078,113.619734 C566.217067,112.564585 566.707073,111.493326 567.201095,110.405958 C571.852132,100.075962 576.442922,88.5619426 577.671953,81.004735 C577.798471,80.2073318 577.894865,79.4582561 577.943062,78.7514669 C578,78.0966649 578.014418,77.4387859 577.985235,76.7821226 Z" id="Path" fill="url(#linearGradient-2)"></path>
                    <path d="M498,45.7209379 L482.114304,34.9680183 C482.114304,34.9680183 456.88301,25.6184459 449.875329,40.1075494 C442.867648,54.5966529 480.237898,47.1182099 480.237898,47.1182099 L496.123593,56 L498,45.7209379 Z" id="Path" fill="#F7BBC3"></path>
                    <polygon id="Rectangle" fill="#FFD862" transform="translate(465.347398, 129.271074) rotate(-57.570000) translate(-465.347398, -129.271074) " points="389.827517 11.706389 541.012815 11.6129025 540.867279 246.835758 389.681981 246.929245"></polygon>
                    <polygon id="Rectangle" fill="#FFFFFF" transform="translate(371.487685, 110.013879) rotate(-57.570000) translate(-371.487685, -110.013879) " points="350.132046 105.00477 392.849539 104.978355 392.843324 115.022987 350.125831 115.049402"></polygon>
                    <polygon id="Rectangle" fill="#FFFFFF" transform="translate(411.911690, 95.524200) rotate(-57.570000) translate(-411.911690, -95.524200) " points="365.010356 90.9499161 458.81872 90.8919091 458.813023 100.098484 365.00466 100.156491"></polygon>
                    <polygon id="Rectangle" fill="#FFFFFF" transform="translate(428.510296, 106.082107) rotate(-57.570000) translate(-428.510296, -106.082107) " points="381.608962 101.507823 475.417325 101.449816 475.411629 110.656391 381.603266 110.714398"></polygon>
                    <polygon id="Rectangle" fill="#FFFFFF" transform="translate(445.107961, 116.643250) rotate(-57.570000) translate(-445.107961, -116.643250) " points="398.206628 112.068967 492.014991 112.01096 492.009295 121.217534 398.200932 121.275541"></polygon>
                    <polygon id="Rectangle" fill="#FFFFFF" transform="translate(462.867556, 130.036118) rotate(-57.264774) translate(-462.867556, -130.036118) " points="416.032254 125.468356 509.708575 125.410144 509.702859 134.603881 416.026538 134.662093"></polygon>
                    <polygon id="Rectangle" fill="#FFFFFF" transform="translate(478.304233, 137.762301) rotate(-57.570000) translate(-478.304233, -137.762301) " points="431.402899 133.188017 525.211262 133.13001 525.205566 142.336585 431.397203 142.394592"></polygon>
                    <polygon id="Rectangle" fill="#FFFFFF" transform="translate(496.102339, 151.368494) rotate(-57.264774) translate(-496.102339, -151.368494) " points="449.267037 146.800732 542.943358 146.74252 542.937642 155.936257 449.261321 155.994469"></polygon>
                    <polygon id="Rectangle" fill="#FFFFFF" transform="translate(552.329887, 136.706097) rotate(-57.570000) translate(-552.329887, -136.706097) " points="540.193586 124.576845 564.481205 124.561826 564.466187 148.835349 540.178568 148.850367"></polygon>
                    <path d="M544.406239,371.840354 C536.860295,369.935507 525.218494,367.152451 519.292954,366.540179 C510.090729,365.587755 510.090729,353.694829 516.530493,355.123464 C520.022436,355.896535 523.107782,353.88655 525.206535,351.851827 C525.848465,351.21903 526.449678,350.54347 527.006321,349.829473 C527.772869,348.880952 528.82611,348.227319 529.995997,347.974102 C533.446084,347.194846 540.627288,346.019778 545.04603,348.481237 C546.069002,349.134021 546.896924,350.067428 547.437772,351.177709 C549.422917,354.82042 550.427448,360.974066 550.97157,365.927906 C551.150239,367.709963 550.479184,369.470459 549.1728,370.646931 C547.866417,371.823402 546.088187,372.268625 544.406239,371.840354 Z" id="Path" fill="#B77983"></path>
                    <path d="M427.394966,375.836821 C419.851647,373.931296 408.213895,371.147249 402.290417,370.534759 C393.091394,369.581996 393.091394,357.684838 399.528917,359.113981 C403.713009,360.05437 407.365123,356.899118 409.367509,354.622386 C409.612577,354.343982 409.833737,354.077951 410.025009,353.83048 C410.791291,352.881622 411.844166,352.227756 413.013646,351.974449 C416.462533,351.194916 423.641238,350.019429 428.058443,352.481764 C429.349534,353.205616 430.383603,354.789429 431.208467,356.812503 C432.696808,360.487444 433.515694,365.64721 433.969967,369.909895 C434.154108,371.697383 433.483659,373.465367 432.17397,374.645965 C430.864281,375.826562 429.08027,376.271111 427.394966,375.836821 Z" id="Path" fill="#B77983"></path>
                    <path d="M431,356.865851 C419.930704,368.697491 410.440153,356.647094 409,354.659528 C409.247056,354.378269 409.470008,354.10951 409.662832,353.859502 C410.435328,352.900915 411.496741,352.240345 412.675705,351.98444 C416.152561,351.196914 423.389482,350.009375 427.842509,352.496957 C429.125993,353.19698 430.168447,354.797033 431,356.865851 Z" id="Path" fill="#000000" opacity="0.1"></path>
                    <path d="M547,350.677899 C542.049771,353.65301 525.497444,352.92017 525.497444,352.92017 C524.953665,352.406304 524.453179,351.857944 524,351.279484 C524.663896,350.723427 525.286057,350.129698 525.862524,349.502075 C526.655793,348.663307 527.745748,348.085306 528.956416,347.861389 C532.526769,347.172301 539.9583,346.1332 544.531073,348.309843 C545.58487,348.883411 546.439191,349.702827 547,350.677899 L547,350.677899 Z" id="Path" fill="#000000" opacity="0.1"></path>
                    <path d="M548,348.021372 C544.736221,352.197552 526.104224,351.274206 526.104224,351.274206 C526.104224,351.274206 520.51523,345.703954 518.18396,333.628034 C515.85269,321.552113 495.82193,283.019005 495.82193,283.019005 C491.165445,276.984062 487.435412,265.837523 487.435412,265.837523 L479.515148,215.228494 C479.515148,215.228494 441.31259,265.372832 441.778844,276.054681 C442.245098,286.736529 433.392326,328.975093 433.392326,328.975093 C430.128547,334.545345 430.128547,354.973626 430.128547,354.973626 C418.018052,367.508202 407.766517,352.650173 407.766517,352.650173 C405.435247,342.897706 409.16528,310.86423 409.16528,310.86423 C409.16528,310.86423 414.754273,283.936316 415.220527,267.219525 C415.686782,250.502734 421.275775,246.326554 421.275775,246.326554 C425.627713,229.099672 433.036977,212.787731 443.153385,198.161676 C445.969075,194.142405 447.828037,192 447.828037,192 L523.300644,200.823086 C522.089595,203.237063 521.005706,206.695085 520.055032,210.786776 C515.150281,231.794412 513.521419,269.542978 513.521419,269.542978 C530.76071,280.695552 535.883449,310.870265 535.883449,310.870265 C535.883449,318.76397 548,348.021372 548,348.021372 Z" id="Path" fill="url(#linearGradient-3)"></path>
                    <g id="Group" opacity="0.05" transform="translate(418.000000, 193.000000)" fill="#000000">
                        <path d="M57.7003687,29.3608602 L56.73447,23.1888172 C56.73447,23.1888172 18.6478802,73.2215054 19.1127189,83.8795699 C19.5775576,94.5376344 10.7576959,136.688172 10.7576959,136.688172 C7.50382488,142.246022 7.50382488,162.628817 7.50382488,162.628817 C4.97437788,165.248172 2.52341014,166.669247 0.259585253,167.277419 C3.91792627,168.234839 8.36709677,167.536344 13.1060369,162.628817 C13.1060369,162.628817 13.1060369,142.246022 16.3599078,136.688172 C16.3599078,136.688172 25.1858065,94.5376344 24.7209677,83.8735484 C24.3285714,75.5397849 47.5825806,43.0778495 57.7003687,29.3608602 Z" id="Path"></path>
                        <path d="M118.509724,118.623656 C118.509724,118.623656 113.402535,88.516129 96.215576,77.3944086 C96.215576,77.3944086 97.8394931,39.735914 102.729355,18.7690323 C103.68318,14.6864516 104.751705,11.2421505 105.965115,8.82752688 L30.7276498,0 C30.7276498,0 30.5525806,0.204731183 30.2326267,0.602150538 L100.399124,8.80946237 C99.1917512,11.2180645 98.1111521,14.6683871 97.1633641,18.7509677 C92.2735023,39.711828 90.6495853,77.3763441 90.6495853,77.3763441 C107.830507,88.516129 112.937696,118.623656 112.937696,118.623656 C112.937696,126.499785 125.011429,155.686022 125.011429,155.686022 C123.097742,158.142796 115.853502,158.829247 110.227143,158.979785 C114.688387,159.094194 127.891014,159.136344 130.583458,155.686022 C130.589493,155.692043 118.509724,126.499785 118.509724,118.623656 Z" id="Path"></path>
                    </g>
                    <path d="M434,186.753704 C433.447771,188.10233 432.719266,189.372044 431.833456,190.529782 C429.08521,194.222868 423.375032,199.113393 412.916265,197.773685 C411.352024,197.571369 410.008543,196.564763 409.376521,195.121526 C408.744498,193.678289 408.916492,192.009776 409.829682,190.725403 C412.512635,186.99082 416.952566,182.37298 423.60059,180.185582 C425.488901,179.558314 427.445933,179.160258 429.429483,179 L434,186.753704 Z" id="Path" fill="#F7BBC3"></path>
                    <path d="M532,56.5397434 L495.352604,43 C495.352604,43 484.839494,48.5370772 488.955644,56.3837694 L524.593306,79 L532,56.5397434 Z" id="Path" fill="#D39999"></path>
                    <path d="M532,56.5397434 L495.352604,43 C495.352604,43 484.839494,48.5370772 488.955644,56.3837694 L524.593306,79 L532,56.5397434 Z" id="Path" fill="#000000" opacity="0.1"></path>
                    <path d="M533.064049,33.9214302 C533.064049,33.9214302 532.597215,55.862362 542.394669,63.3317445 C552.192123,70.801127 513.942039,75 513.942039,75 C513.942039,75 520.004819,52.5918526 513.942039,40.9235971 C507.879258,29.2553416 533.064049,33.9214302 533.064049,33.9214302 Z" id="Path" fill="#F7BBC3"></path>
                    <path d="M524,201.69314 C522.791176,204.071564 521.709278,207.478656 520.760351,211.510085 C475.786038,218.264809 444.48353,199.861753 444.48353,199.861753 C444.314294,199.594181 444.151103,199.332554 444,199.070927 C446.810517,195.110851 448.666062,193 448.666062,193 L524,201.69314 Z" id="Path" fill="#000000" opacity="0.1"></path>
                    <path d="M435,187.071942 C434.415878,188.474848 433.645301,189.795666 432.708333,191 C428.238014,190.272354 424.659247,181.873587 424,180.233299 C425.997365,179.580785 428.067421,179.166709 430.165525,179 L435,187.071942 Z" id="Path" fill="#000000" opacity="0.1"></path>
                    <path d="M537.617045,54 L520.862696,60.0263991 L513.882726,69.3010274 C513.882726,69.3010274 499.45705,73.9353283 497.594112,73.9353283 C495.731174,73.9353283 490.614142,75.7914592 487.353999,83.2099566 C484.093857,90.6284539 472.468638,126.780822 462.228525,132.807221 C451.988413,138.83362 425,179.210495 425,179.210495 C425,179.210495 429.651297,191.727326 435.240113,189.877221 L448.268584,179.210495 C448.268584,179.210495 438.028472,189.413188 444.083021,198.68179 C444.083021,198.68179 482.243016,221.401315 534.81054,207.492386 L535.276275,193.583456 L537.604948,204.708189 L563.704231,188.461017 C563.704231,188.461017 561.369509,158.533919 557.165801,143.299182 C555.429206,136.89436 556.073612,130.080049 558.980351,124.111127 C565.736527,110.08167 576.164143,86.6510305 574.893958,78.1055965 C573.39393,68.0354836 567.684145,63.6422386 565.506684,62.3405364 C565.00801,62.0396221 564.447816,61.8542597 563.86754,61.7981605 L555.35125,60.9484382 L537.617045,54 Z" id="Path" fill="url(#linearGradient-4)"></path>
                    <path d="M509,100 C509,100 499.718311,143.64072 489.513882,150.679349 C479.309452,157.717979 451.928772,180.242812 451,184" id="Path" fill="#000000" opacity="0.05"></path>
                    <path d="M505,99 C505,99 495.718311,142.631216 485.513882,149.668312 C475.309452,156.705408 447.928772,179.225336 447,183" id="Path" fill="#D5A6A6"></path>
                    <path d="M513,69 C513,69 544.790419,58.7756047 554,61.4443452" id="Path" fill="#000000" opacity="0.1"></path>
                    <g id="Group" opacity="0.05" transform="translate(536.000000, 53.000000)" fill="#000000">
                        <path d="M22.854,70.598247 C29.556,56.5003984 39.9,32.9555378 38.64,24.3684462 C37.152,14.249243 31.488,9.83458167 29.328,8.52653386 C28.8333247,8.22415268 28.277623,8.0378867 27.702,7.98151394 L24.102,7.61816733 C24.4782662,7.7096518 24.8384383,7.85873598 25.17,8.06023904 C27.33,9.39250996 32.97,13.7829482 34.482,23.9021514 C35.742,32.4831873 25.398,56.0341036 18.696,70.1319522 C15.8125695,76.1299709 15.1733301,82.9775007 16.896,89.4135458 C21.096,104.72255 23.382,134.795538 23.382,134.795538 L1.122,148.838884 L1.686,151.57004 L27.588,135.255777 C27.588,135.255777 25.272,105.182789 21.102,89.8737849 C19.3659332,83.4454128 19.9880819,76.6005206 22.854,70.598247 L22.854,70.598247 Z" id="Path"></path>
                        <polygon id="Path" points="15.096 6.66741036 19.098 7.06709163 1.71 0.139282869 0.15 0.708525896"></polygon>
                    </g>
                    <path d="M504,143 C504,143 518.44387,135.713092 523.101034,137.428969 C527.758198,139.144847 545,137 545,137" id="Path" fill="#000000" opacity="0.05"></path>
                    <path d="M531.374444,39.838599 C530.842664,35.2092935 533,35.9117951 533,35.9117951 C533,35.9117951 507.89151,31.2944983 513.940511,42.8407426 C515.45125,45.734809 516.20662,49.289347 516.490639,53 L516.726314,53 C523.748231,53.0060008 527.815142,45.254466 531.374444,39.838599 Z" id="Path" fill="#000000" opacity="0.05"></path>
                    <circle id="Oval" fill="#F7BBC3" cx="518" cy="31" r="20"></circle>
                    <path d="M540.035099,37.2285839 C541.861288,33.263135 543.200493,28.9602011 542.975263,24.572896 C542.750033,20.1855909 540.783836,15.7922592 537.131459,13.357546 C535.244397,12.0980037 533.016447,11.4230337 531.044163,10.2779953 C529.516252,9.38004407 528.164873,8.21692609 526.710009,7.20447106 C519.444629,2.314991 510.094003,1.64160997 502.190382,5.43870128 C498.495394,7.24665669 495.342175,10.0128285 491.84198,12.206481 C488.341785,14.4001336 484.245035,16.0935852 480.16046,15.4427212 C479.460421,17.371207 481.183125,19.2755867 482.77191,20.5953941 C485.785121,23.0963991 489.200094,25.5913776 493.120312,25.6757488 C494.642136,25.7119079 496.243095,25.3864759 497.624911,26.0192603 C498.555851,26.5264317 499.346162,27.2529649 499.925908,28.1345682 C501.818123,30.622084 503.421085,33.312836 504.704436,36.1558637 C505.227943,37.3189816 505.763625,38.5664709 506.847164,39.2715735 C508.673352,40.4166119 511.004786,39.4644221 513.147514,39.3800508 C516.483352,39.2534939 519.478302,41.3266161 521.949744,43.5564278 C524.421186,45.7862395 526.764795,48.317377 529.863228,49.492548 C532.188575,50.3663932 536.839269,50.3362606 538.026291,47.5821418 C538.470664,46.5455807 537.618443,44.3217956 537.794974,43.0502003 C538.123688,41.0433698 539.182878,39.0787249 540.035099,37.2285839 Z" id="Path" fill="#000000" opacity="0.1"></path>
                    <path d="M540.035099,37.2285839 C541.861288,33.263135 543.200493,28.9602011 542.975263,24.572896 C542.750033,20.1855909 540.783836,15.7922592 537.131459,13.357546 C535.244397,12.0980037 533.016447,11.4230337 531.044163,10.2779953 C529.516252,9.38004407 528.164873,8.21692609 526.710009,7.20447106 C519.444629,2.314991 510.094003,1.64160997 502.190382,5.43870128 C498.495394,7.24665669 495.342175,10.0128285 491.84198,12.206481 C488.341785,14.4001336 484.245035,16.0935852 480.16046,15.4427212 C479.460421,17.371207 481.183125,19.2755867 482.77191,20.5953941 C485.785121,23.0963991 489.200094,25.5913776 493.120312,25.6757488 C494.642136,25.7119079 496.243095,25.3864759 497.624911,26.0192603 C498.555851,26.5264317 499.346162,27.2529649 499.925908,28.1345682 C501.818123,30.622084 503.421085,33.312836 504.704436,36.1558637 C505.227943,37.3189816 505.763625,38.5664709 506.847164,39.2715735 C508.673352,40.4166119 511.004786,39.4644221 513.147514,39.3800508 C516.483352,39.2534939 519.478302,41.3266161 521.949744,43.5564278 C524.421186,45.7862395 526.764795,48.317377 529.863228,49.492548 C532.188575,50.3663932 536.839269,50.3362606 538.026291,47.5821418 C538.470664,46.5455807 537.618443,44.3217956 537.794974,43.0502003 C538.123688,41.0493963 539.182878,39.0787249 540.035099,37.2285839 Z" id="Path" fill="#9B6C7A"></path>
                    <polygon id="Path" fill="url(#linearGradient-5)" points="92 349 92 172.49711 149.038534 172.49711 408 172.49711 408 349"></polygon>
                </g>
            </g>
        </g>
    </g>
</svg>