<?xml version="1.0" encoding="UTF-8"?>
<svg width="21px" height="21px" viewBox="0 0 21 21" version="1.1" xmlns="http://www.w3.org/2000/svg" xmlns:xlink="http://www.w3.org/1999/xlink">
    <!-- Generator: Sketch 55.2 (78181) - https://sketchapp.com -->
    <title>link (1)</title>
    <desc>Created with Sketch.</desc>
    <g id="Page-1" stroke="none" stroke-width="1" fill="none" fill-rule="evenodd">
        <g id="SHare-collection-Copy-4" transform="translate(-212.000000, -554.000000)" fill="#1640AF" fill-rule="nonzero">
            <g id="link-(1)" transform="translate(212.000000, 554.000000)">
                <path d="M19.9547945,3.20753425 C19.2763699,2.48356164 18.5787671,1.77876712 17.8547945,1.10034247 C16.3205479,-0.335616438 14.0239726,-0.357191781 12.489726,1.0739726 C11.3941781,2.09760274 10.3585616,3.18356164 9.29657534,4.24075342 C9.28938356,4.24794521 9.2869863,4.25753425 9.28219178,4.26952055 C9.27739726,4.28630137 9.28458904,4.30547945 9.2989726,4.31027397 C9.30856164,4.31506849 9.31575342,4.31746575 9.32294521,4.31746575 C9.36130137,4.31986301 9.40205479,4.31986301 9.44041096,4.31986301 C10.380137,4.30787671 11.264726,4.51164384 12.0869863,4.96952055 C12.2188356,5.04383562 12.2811644,4.98869863 12.3626712,4.90479452 C12.9691781,4.29589041 13.5732877,3.68458904 14.184589,3.08287671 C14.7623288,2.51232877 15.5510274,2.51472603 16.1239726,3.08527397 C16.7232877,3.67979452 17.3202055,4.27671233 17.9123288,4.87363014 C18.4732877,5.43938356 18.4828767,6.23047945 17.9195205,6.79623288 C16.0784247,8.65410959 14.2277397,10.5023973 12.369863,12.3458904 C12.2116438,12.5041096 11.9886986,12.6287671 11.7753425,12.6934932 C11.2455479,12.8565068 10.7996575,12.6695205 10.4184932,12.2859589 C9.92465753,11.7873288 9.42842466,11.2934932 8.94178082,10.8068493 C8.78835616,10.6534247 8.54143836,10.6534247 8.3880137,10.8068493 L7.09349315,12.1037671 C6.94006849,12.2571918 6.94006849,12.5041096 7.09109589,12.6599315 C7.61849315,13.1993151 8.14828767,13.7506849 8.69726027,14.2828767 C10.2195205,15.759589 12.6599315,15.75 14.1558219,14.2924658 C14.764726,13.6979452 15.3688356,13.0986301 15.9681507,12.4945205 C17.3082192,11.1496575 18.6674658,9.82636986 19.9739726,8.45034247 C21.3284247,7.01917808 21.3068493,4.65068493 19.9547945,3.20753425 Z M11.6554795,16.6825342 C11.6339041,16.680137 11.614726,16.680137 11.5931507,16.680137 C10.6390411,16.6969178 9.73527397,16.4931507 8.9010274,16.0280822 C8.76438356,15.9513699 8.70445205,16.0184932 8.62534247,16.0976027 C8.02363014,16.6993151 7.42431507,17.3058219 6.82020548,17.9027397 C6.22089041,18.494863 5.44417808,18.4900685 4.84726027,17.8955479 C4.28869863,17.3393836 3.73253425,16.7808219 3.1739726,16.2222603 C2.47876712,15.5270548 2.47636986,14.7934932 3.17157534,14.0982877 L8.50547945,8.76438356 C8.56061644,8.70924658 8.61575342,8.65410959 8.67328767,8.60136986 C9.09520548,8.22020548 9.68013699,8.13390411 10.1715753,8.40479452 C10.3393836,8.49589041 10.4880137,8.63253425 10.6246575,8.76917808 C11.1089041,9.24383562 11.5859589,9.72568493 12.0582192,10.1979452 C12.2116438,10.3513699 12.4585616,10.3513699 12.6119863,10.1979452 C13.0506849,9.75924658 13.4869863,9.32534247 13.9376712,8.87705479 C14.0910959,8.72363014 14.0886986,8.47910959 13.935274,8.32568493 C13.3167808,7.70958904 12.710274,7.07431507 12.0462329,6.50616438 C10.5982877,5.2619863 8.34246575,5.31712329 6.94726027,6.62123288 C5.95479452,7.55136986 5.01027397,8.52705479 4.0489726,9.48835616 C3.03972603,10.5 2.01130137,11.4924658 1.03561644,12.5376712 C-0.342808219,14.0119863 -0.323630137,16.3349315 1.05719178,17.8140411 C1.72842466,18.5332192 2.4260274,19.2284247 3.14280822,19.9020548 C4.66027397,21.3284247 6.96643836,21.3571918 8.48869863,19.9380137 C9.5890411,18.909589 10.6318493,17.8188356 11.7010274,16.7568493 C11.7082192,16.7496575 11.7106164,16.7376712 11.7130137,16.7232877 C11.7130137,16.7041096 11.6890411,16.6849315 11.6554795,16.6825342 Z" id="Shape"></path>
            </g>
        </g>
    </g>
</svg>